<svg id="Layer_2" data-name="Layer 2" xmlns="http://www.w3.org/2000/svg" viewBox="0 0 512 512"><defs><style>.cls-1{fill:#fff;}.cls-2{fill:#c22aff;}</style></defs><title>logo_web_white</title><circle class="cls-1" cx="265.34" cy="241.58" r="173.78"/><circle class="cls-1" cx="313.93" cy="24.56" r="18.42"/><circle class="cls-1" cx="240.78" cy="20.82" r="20.82"/><circle class="cls-1" cx="162.3" cy="43.78" r="22.42"/><circle class="cls-1" cx="86.49" cy="104.91" r="24.03"/><circle class="cls-1" cx="42.44" cy="192.2" r="25.63"/><circle class="cls-1" cx="40.84" cy="299.51" r="28.03"/><circle class="cls-1" cx="100.1" cy="412.16" r="29.63"/><circle class="cls-1" cx="234.11" cy="479.97" r="32.03"/><circle class="cls-1" cx="391.61" cy="446.87" r="35.24"/><path class="cls-2" d="M303.91,254.53a9.46,9.46,0,0,1-4.75,1.09q-9.78,0-9.78-9.51a8.84,8.84,0,0,1,5.3-8.56q20-10.73,20-35,0-39.8-42.79-39.8h-56v78.37H253q19.83,0,32.46,15.89l52.3,65.61q6.38,8-1.36,13.72-7.47,6.93-13.85-1.22l-52.84-66.15a27,27,0,0,0-6.25-6A18.43,18.43,0,0,0,253,260H215.9v68.46q0,10.05-9.64,10.05t-9.78-10.05V160.94q0-17.25,17.52-17.25h58.68q26.49,0,43.6,15.21,18.47,16.17,18.47,43.87Q334.75,238.5,303.91,254.53Z"/></svg>